<?xml version="1.0" encoding="utf-8"?>
<!-- Generator: Adobe Illustrator 21.1.0, SVG Export Plug-In . SVG Version: 6.00 Build 0)  -->
<svg version="1.2" baseProfile="tiny" id="Layer_1" xmlns="http://www.w3.org/2000/svg" xmlns:xlink="http://www.w3.org/1999/xlink"
	 x="0px" y="0px" viewBox="0 0 55.1 55.1" xml:space="preserve">
<g>
	<path fill="#303030" d="M27.6,51.6c-13.3,0-24.1-10.8-24.1-24.1S14.3,3.5,27.6,3.5s24.1,10.8,24.1,24.1S40.8,51.6,27.6,51.6z"/>
	<path fill="#303030" d="M27.6,7c11.3,0,20.6,9.2,20.6,20.6s-9.2,20.6-20.6,20.6S7,38.9,7,27.6S16.2,7,27.6,7 M27.6,0
		C12.3,0,0,12.3,0,27.6c0,15.2,12.3,27.6,27.6,27.6c15.2,0,27.6-12.3,27.6-27.6C55.1,12.3,42.8,0,27.6,0L27.6,0z"/>
</g>
</svg>
