<?xml version="1.0" encoding="utf-8"?>
<!-- Generator: Adobe Illustrator 21.1.0, SVG Export Plug-In . SVG Version: 6.00 Build 0)  -->
<svg version="1.2" baseProfile="tiny" id="Layer_1" xmlns="http://www.w3.org/2000/svg" xmlns:xlink="http://www.w3.org/1999/xlink"
	 x="0px" y="0px" viewBox="0 0 2560 1600" xml:space="preserve">
<g>
	<path d="M915.5,191l-86.7,514.7l-1.7,10l6.9-7.5c0.5-0.6,52.7-57.2,125.6-91.2c45.1-21,92.6-31.7,141.2-31.7
		c44.3,0,85.1,8.4,121.4,25c36.3,16.6,69,41.8,97.4,74.9c18.7,21.9,34.6,46.2,47.1,72.4c11.8,24.7,21,51.6,27.4,80.1l-90.4-28
		l-5-1.6l1.2,5.1l41,172.1l-206.3,1.4c0.6-7.8,0.9-15.5,0.9-23.1c0-25.1-3.9-48.2-11.7-68.5c-7.8-20.3-19.6-38.4-35.1-53.8
		c-15.5-15.4-33.6-27.1-53.9-34.8c-20.2-7.7-43.1-11.6-68-11.6c-27.8,0-53.6,5.4-76.6,16c-23.1,10.6-44,26.7-62.3,47.8
		c-18.3,21.1-32.2,45.3-41.3,72c-9.1,26.6-13.7,56.3-13.7,88.3c0,24.4,3.9,46.8,11.6,66.7c7.7,19.9,19.4,37.7,34.8,52.9
		c15.4,15.2,33.4,26.8,53.4,34.5c20,7.6,42.7,11.5,67.3,11.5c28.3,0,54.4-5.3,77.8-15.7c23.3-10.4,44.5-26.2,62.8-47
		c19.8-22.5,34.4-48.6,43.5-77.7l253.9,78.7c-19.1,57-48.7,108.7-87.8,153.7c-38.2,43.9-81.8,77.3-129.7,99.2
		c-47.8,21.9-101.3,33-158.9,33c-50.6,0-97.6-11-139.6-32.8c-42.1-21.8-83.5-56.5-123.1-103.3l-4.2-4.9l-1.1,6.4L716.2,1379H466.5
		L655,191H915.5 M919,188H652.5L463,1382h255.7l17.7-107.1c40.1,47.3,81.4,81.9,124,104c42.6,22.1,89.6,33.1,141,33.1
		c116.6,0,213.5-44.4,290.8-133.3c40.3-46.3,70.1-98.9,89.4-157.6l-259.7-80.5c-8.9,29.9-23.5,56.4-43.8,79.4
		c-36.2,41.1-82.3,61.6-138.3,61.6c-48.8,0-88.3-15-118.6-45.1c-30.3-30-45.4-69.2-45.4-117.5c0-63.7,18.1-116.4,54.3-158.3
		c36.2-41.8,81.8-62.8,136.7-62.8c49.3,0,89.2,15.2,119.8,45.4c30.5,30.3,45.8,70.4,45.8,120.2c0,8.9-0.4,17.6-1.1,26.1l213.4-1.4
		l-41.8-175.8l95.3,29.5c-12.9-61.4-38.3-114.4-76.2-158.9c-57.5-67.3-131.2-100.9-221.1-100.9c-48.8,0-96.6,10.6-142.5,32
		c-74.4,34.7-126.5,91.9-126.5,91.9L919,188L919,188z"/>
	<path d="M1689.1,989.8c-0.8,8.8-1.2,17.6-1.2,26.3c0,25.9,3.6,49.5,10.8,70c7.2,20.7,18.1,38.9,32.4,54.1
		c14.4,15.3,31.5,26.9,51,34.5c19.4,7.6,41.6,11.5,66,11.5c31,0,61.3-5.5,90-16.4c26.6-10.1,53.5-25,79.9-44.5l-40.1,246.6
		c-35.6,12.4-70.5,21.8-103.8,27.8c-33.8,6.1-67.5,9.2-100,9.2c-54.3,0-104.1-8.9-148-26.5c-43.9-17.5-83.1-44.2-116.7-79.3
		c-22.6-23.7-41.7-50.1-56.7-78.7c-14.2-27.1-25.2-56.8-32.6-88.4l101.1,31.3l5,1.6l-1.2-5.1l-41.1-172.8L1689.1,989.8
		 M1692.4,986.7l-212.4,1.4l42,176.5l-106-32.9c14.9,67.7,45.3,125.6,91.2,173.6c68,71.1,157,106.7,266.9,106.7
		c32.9,0,66.4-3.1,100.5-9.2c34.1-6.2,69.4-15.7,105.9-28.5l41.6-255.7c-28.2,21.6-56.6,37.7-85.1,48.5
		c-28.5,10.8-58.2,16.2-89,16.2c-48.3,0-86.5-15-114.8-45.1c-28.2-30-42.4-70.7-42.4-122.1C1690.9,1006,1691.5,996.3,1692.4,986.7
		L1692.4,986.7z"/>
	<path d="M1862.7,578.5c43.1,0,84.8,6.3,123.9,18.7c38.5,12.3,74.2,30.5,106.3,54.3l-36.5,230.2c-27-28.2-54.8-49.7-82.5-64
		c-29.3-15-60.5-22.7-92.6-22.7c-27.3,0-52.7,5.4-75.6,16c-22.9,10.6-43.8,26.7-62.2,47.8c-19,21.8-33.3,46.6-42.5,73.9l-263.4-81.6
		c20.8-56,53.1-105.9,96.1-148.5c41.6-41.2,90.4-72.6,144.9-93.2C1733.1,588.9,1795.1,578.5,1862.7,578.5 M1862.7,575.5
		c-136.6,0-247,41.7-331.2,125.2c-44.3,43.9-76.9,94.7-97.9,152.5l269.2,83.4c9.1-28.1,23.3-53.3,42.8-75.7
		c36.5-41.8,81.7-62.8,135.6-62.8c31.8,0,62.3,7.5,91.3,22.3c29,14.9,57.6,37.5,85.9,67.8l37.7-238c-32.9-24.6-69.1-43.3-108.6-55.8
		C1947.9,581.8,1906.3,575.5,1862.7,575.5L1862.7,575.5z"/>
</g>
</svg>
